<svg xmlns="http://www.w3.org/2000/svg" width="1200" height="630" viewBox="0 0 1200 630" role="img" aria-labelledby="title desc">
  <title id="title">SituationMap social preview</title>
  <desc id="desc">Social preview image for SituationMap – incident report and environment map.</desc>
  <defs>
    <linearGradient id="bg" x1="0" x2="1" y1="0" y2="1">
      <stop offset="0" stop-color="#173b37"/>
      <stop offset="1" stop-color="#2f8a83"/>
    </linearGradient>
    <filter id="shadow" x="-20%" y="-20%" width="140%" height="140%">
      <feDropShadow dx="0" dy="18" stdDeviation="22" flood-color="#08201d" flood-opacity="0.28"/>
    </filter>
  </defs>

  <rect width="1200" height="630" fill="url(#bg)"/>
  <circle cx="1040" cy="96" r="210" fill="#f2c14e" opacity="0.18"/>
  <circle cx="120" cy="560" r="240" fill="#f7f6f2" opacity="0.12"/>

  <g filter="url(#shadow)">
    <rect x="92" y="78" width="1016" height="474" rx="42" fill="#f7f6f2"/>
  </g>

  <g transform="translate(142 136)">
    <rect width="144" height="144" rx="34" fill="#173b37"/>
    <rect x="18" y="18" width="108" height="108" rx="26" fill="#2f8a83"/>
    <path d="M42 94c18-32 56-32 74-58 0 30-16 41-32 51 7 0 14 2 21 7-12 7-26 10-42 10-7 0-14-1-21-4z" fill="#f7f6f2"/>
    <circle cx="60" cy="60" r="10" fill="#f2c14e"/>
  </g>

  <text x="326" y="190" font-family="Inter, ui-sans-serif, system-ui, -apple-system, BlinkMacSystemFont, 'Segoe UI', sans-serif" font-size="76" font-weight="800" fill="#173b37">SituationMap</text>
  <text x="330" y="250" font-family="Inter, ui-sans-serif, system-ui, -apple-system, BlinkMacSystemFont, 'Segoe UI', sans-serif" font-size="28" font-weight="700" fill="#2f8a83" letter-spacing="1.8">KARTA ZDARZENIA · MAPA ŚRODOWISKA</text>

  <text x="142" y="354" font-family="Inter, ui-sans-serif, system-ui, -apple-system, BlinkMacSystemFont, 'Segoe UI', sans-serif" font-size="38" font-weight="650" fill="#173b37">Narzędzie do opisu sytuacji, napięcia i wsparcia</text>
  <text x="142" y="412" font-family="Inter, ui-sans-serif, system-ui, -apple-system, BlinkMacSystemFont, 'Segoe UI', sans-serif" font-size="30" fill="#33534f">PL / EN · PDF · e-mail · dane lokalne w przeglądarce</text>

  <g transform="translate(142 474)" font-family="Inter, ui-sans-serif, system-ui, -apple-system, BlinkMacSystemFont, 'Segoe UI', sans-serif" font-size="24" font-weight="700">
    <rect width="176" height="46" rx="23" fill="#e7f2ef"/>
    <text x="28" y="31" fill="#173b37">incident</text>
    <rect x="196" width="214" height="46" rx="23" fill="#fff3cd"/>
    <text x="224" y="31" fill="#6c4a00">environment</text>
    <rect x="430" width="136" height="46" rx="23" fill="#e7f2ef"/>
    <text x="458" y="31" fill="#173b37">support</text>
  </g>
</svg>
